<svg xmlns="http://www.w3.org/2000/svg" width="24" height="23.428" viewBox="0 0 24 23.428">
  <g id="sberbank-vector-logo" transform="translate(-20 -264.2)">
    <path id="Path_17" data-name="Path 17" d="M44,275.414a12,12,0,1,1-24,0v-.8l7.292,4.269,15.38-9.008A11.487,11.487,0,0,1,44,275.414Zm-16.708.347-6.761-3.922a6.718,6.718,0,0,0-.347,1.328l7.129,4.106,14.768-8.558c-.266-.347-.531-.715-.8-1.062ZM40.3,266.671a8.548,8.548,0,0,0-1.062-.9l-11.949,6.945-5.719-3.391a7.026,7.026,0,0,0-.613,1.246l6.332,3.656Zm-13.011,4.473,10.805-6.23c-.531-.266-.96-.531-1.409-.715l-9.416,5.433-4.106-2.41c-.266.347-.613.715-.878,1.062Z" fill="#00a10b"/>
  </g>
</svg>
