<svg xmlns="http://www.w3.org/2000/svg" width="122.043" height="23.331" viewBox="0 0 122.043 23.331">
    <defs>
        <style>.a{fill:#00a10b;}</style>
    </defs>
    <g transform="translate(-20 -264.2)">
        <path class="a" d="M43.9,275.367a11.952,11.952,0,1,1-23.9,0v-.793l7.262,4.251,15.316-8.97A11.439,11.439,0,0,1,43.9,275.367Zm-16.639.346-6.733-3.905a6.69,6.69,0,0,0-.346,1.322l7.1,4.088L41.988,268.7c-.264-.346-.529-.712-.793-1.058Zm12.957-9.052a8.515,8.515,0,0,0-1.058-.895l-11.9,6.916-5.7-3.377a7,7,0,0,0-.61,1.241l6.306,3.641Zm-12.957,4.455,10.76-6.2c-.529-.264-.956-.529-1.4-.712l-9.377,5.411-4.088-2.4c-.264.346-.61.712-.875,1.058Z" />
        <path class="a" d="M172.77,285.7c-1.4-.529-2.97-1.241-2.97-3.56,0-2.136,1.4-3.641,4.821-3.641a7.369,7.369,0,0,1,3.336.631v2.482h-.692l-.183-.712a2.17,2.17,0,0,0-2.278-1.607c-1.831,0-2.461.895-2.461,1.953,0,1.159.529,1.607,1.749,2.034l1.668.631c1.831.712,2.807,1.688,2.807,3.722,0,1.871-1.22,3.905-4.983,3.905a12.591,12.591,0,0,1-3.58-.529v-2.746h.793l.183.895c.264.976.875,1.607,2.543,1.607,1.566,0,2.543-.793,2.543-2.217a2.272,2.272,0,0,0-1.566-2.217Zm11.818-6.936c2.461,0,4.638.264,4.638,2.848,0,1.77-1.139,2.482-2.543,2.746a3.045,3.045,0,0,1,2.97,3.112c0,3.112-2.1,3.824-5.166,3.824h-4.719v-.346c.61-.183.692-.346.692-.976v-9.763c0-.712-.081-.895-.692-.976v-.448h4.821Zm-1.4,5.248h1.139c1.4,0,2.2-.529,2.2-2.217s-.692-2.3-2.1-2.3h-.447c-.61,0-.793.183-.793.712Zm0,.793v4.617c0,.793.183,1.058,1.058,1.058h.447c1.4,0,2.278-.895,2.278-2.848,0-1.871-.692-2.848-2.624-2.848h-1.159Zm12.082-5.329c-.529,0-.61.183-.61.529v3.905h1.668a5.542,5.542,0,0,0,2.2-.346v1.607a5.48,5.48,0,0,0-2.2-.346h-1.668v4.7c0,.793.264.976,1.932.976h.346c1.566,0,2.014-.081,2.359-1.688l.081-.447h.793v2.929h-8.929v-.346c.61-.183.692-.346.692-.976v-9.763c0-.712-.081-.895-.692-.976v-.448H199.9v2.746h-.692l-.081-.631c-.346-1.322-.875-1.424-2.461-1.424Zm17.086,11.818h-3.417c-.183-.712-1.139-3.193-1.485-4.088l-.692-1.688h-1.485v4.353c0,.712.081.895.692.976v.346h-4.109v-.346c.61-.183.692-.346.692-.976v-9.763c0-.712-.081-.895-.692-.976v-.346h4.983c2.624,0,4.475.631,4.475,3.275a3.068,3.068,0,0,1-2.2,3.112C209.464,285.6,211.295,289.769,212.352,291.294Zm-5.96-6.57c1.749,0,2.2-.895,2.2-2.665s-.793-2.583-1.932-2.583h-.61c-.529,0-.793.081-.793.712v4.536h1.139Zm11.9-5.96c2.461,0,4.638.264,4.638,2.848,0,1.77-1.139,2.482-2.543,2.746a3.045,3.045,0,0,1,2.97,3.112c0,3.112-2.1,3.824-5.166,3.824h-4.719v-.346c.61-.183.692-.346.692-.976v-9.763c0-.712-.081-.895-.692-.976v-.448h4.821Zm-1.4,5.248h1.139c1.4,0,2.2-.529,2.2-2.217s-.692-2.3-2.1-2.3H217.6c-.692,0-.793.183-.793.712v3.824h.081Zm0,.793v4.617c0,.793.183,1.058,1.058,1.058h.447c1.4,0,2.278-.895,2.278-2.848,0-1.871-.692-2.848-2.624-2.848h-1.159Zm15.6,6.489a17.445,17.445,0,0,0-.875-2.929l-.529-1.607H227.14a30.221,30.221,0,0,0-.875,3.01,7.182,7.182,0,0,0-.264,1.505h-2.278a32.2,32.2,0,0,0,1.749-3.722l2.278-5.675a5.323,5.323,0,0,0,.61-2.034c0-.264-.081-.631-.692-.712v-.346h3.58a10.533,10.533,0,0,0,.448,1.871l2.624,7.546a23.521,23.521,0,0,0,1.322,3.193h-3.153Zm-1.668-5.329-1.668-5.065-1.749,5.065Zm7.709-4.983v8.97c0,.712.183.895.875.976v.346h-2.97v-.346c.692-.183.875-.346.875-.976v-9.763c0-.712-.183-.895-.875-.976v-.448H240.2c.264.448.793,1.241,1.831,2.848l3.763,5.228v-6.753c0-.712-.183-.895-.875-.976v-.346h2.97v.346c-.692.183-.875.346-.875.976v11.269h-1.139Zm11.818-.875c0-.712-.081-.895-.692-.976v-.346h4.109v.346c-.61.183-.692.346-.692.976v9.763c0,.712.081.895.692.976v.346h-4.109v-.346c.61-.183.692-.346.692-.976ZM257,285.782a54.651,54.651,0,0,0,4.373,5.512h-4.211a22.1,22.1,0,0,0-2.014-3.722l-1.831-2.848,1.668-2.136a20.474,20.474,0,0,0,2.543-3.824h2.888a24.463,24.463,0,0,0-3.682,3.275l-1.322,1.424Z" transform="translate(-119.33 -11.391)" />
        <path class="a" d="M261.929,357.1H170.6v1.241h91.308V357.1Z" transform="translate(-119.967 -74.004)" />
    </g>
</svg>