<svg xmlns="http://www.w3.org/2000/svg" width="13.425" height="15.354" viewBox="0 0 13.425 15.354">
    <defs>
        <style>.a{fill:#ffffff;stroke:#ffffff;}</style>
    </defs>
    <path class="a" d="M12.421,13.882,11.33,3.493a.427.427,0,0,0-.425-.383H8.854V2.643a2.643,2.643,0,0,0-5.286,0v.468H1.518a.427.427,0,0,0-.425.383L0,13.882a.427.427,0,0,0,.425.472H12a.427.427,0,0,0,.425-.472Zm-8-11.239A1.789,1.789,0,0,1,8,2.643v.468H4.422ZM.9,13.5l1-9.535H3.568v.941a.427.427,0,1,0,.854,0V3.965H8v.941a.427.427,0,0,0,.854,0V3.965H10.52l1,9.535Zm0,0" transform="translate(0.501 0.5)" />
</svg>