<svg id="_RR_Icon" data-name="â© RR Icon" xmlns="http://www.w3.org/2000/svg" xmlns:xlink="http://www.w3.org/1999/xlink" width="17.49" height="17.49" viewBox="0 0 17.49 17.49">
    <defs>
        <clipPath id="clip-path">
            <path id="Mask" d="M16,17.49h0L11,12.5v-.79l-.27-.28a6.509,6.509,0,1,1,.7-.7l.28.27h.79l4.99,5L16,17.489ZM6.5,2A4.5,4.5,0,1,0,11,6.5,4.505,4.505,0,0,0,6.5,2Z" />
        </clipPath>
    </defs>
    <path id="Mask-2" data-name="Mask" d="M16,17.49h0L11,12.5v-.79l-.27-.28a6.509,6.509,0,1,1,.7-.7l.28.27h.79l4.99,5L16,17.489ZM6.5,2A4.5,4.5,0,1,0,11,6.5,4.505,4.505,0,0,0,6.5,2Z" />
    <g id="_RR_Icon-2" data-name="â© RR Icon" clip-path="url(#clip-path)">
        <g id="_Icon_Fill" data-name="ðŸŽ¨ Icon Fill" transform="translate(-3 -3)">
            <rect id="Rectangle" width="24" height="24" fill="#fff" />
            <g id="Swatch" fill="#00a10b" stroke="#00a10b" stroke-miterlimit="10" stroke-width="1">
                <rect width="24" height="24" stroke="none" />
                <rect x="0.5" y="0.5" width="23" height="23" fill="none" />
            </g>
        </g>
    </g>
</svg>