<svg xmlns="http://www.w3.org/2000/svg" width="17.328" height="20" viewBox="0 0 17.328 20">
  <g id="Gruppe_13320" data-name="Gruppe 13320" transform="translate(0 176.628)">
    <path id="Path_11101" data-name="Path 11101" d="M4.911-172.33v-.59a3.745,3.745,0,0,1,3.743-3.708A3.745,3.745,0,0,1,12.4-172.92v.589h2.734a.7.7,0,0,1,.693.624l1.5,14.38a.7.7,0,0,1-.7.7H.7c-.427,0-.745-.25-.7-.7l1.508-14.38a.7.7,0,0,1,.691-.624Zm6.094,1.393H6.3v1.146a.7.7,0,0,1-.7.7.7.7,0,0,1-.7-.7v-1.146H2.834L1.477-158.025H15.859L14.5-170.937H12.4v1.146a.7.7,0,0,1-.7.7.7.7,0,0,1-.7-.7Zm0-1.394v-.58a2.352,2.352,0,0,0-2.351-2.324A2.352,2.352,0,0,0,6.3-172.91v.579Z" transform="translate(0)" fill="#fff" fill-rule="evenodd"/>
  </g>
</svg>
